<?xml version="1.0" encoding="UTF-8"?>
<svg id="Calque_1" data-name="Calque 1" xmlns="http://www.w3.org/2000/svg" viewBox="0 0 1920 1080">
  <defs>
    <style>
      .cls-1 {
        fill: #dfdc02;
      }
    </style>
  </defs>
  <g>
    <path class="cls-1" d="M556.19,380.5c-.95,45.65,23.69,80.18,53.2,115.61,12.59,15.12,36.68,40.02,24.68,61.63-6.56,12.08-3.86,27.64-12,38.23-57.88-25.99-118.23-61.82-117.51-133.29.29-28.16,9.69-55.32,17.14-82.16,9.2-33.16,10.86-67.05,18.25-100.52,2.91-9.93,6.92-20.34,12.03-29.36,8-16.96,14.4,18.87,14.94,22.02,5.98,35.28-10.02,74.18-10.72,107.85ZM535.63,407.06c.46-16.84,6.18-37.19,3.65-54.3-1.94-.67-3.25.25-3.96,2.73-1.65,2.52-2.46,3.78-4.08,6.33-13.78,50.42-22.37,95.6,8.71,141.51,1.93-2.81,2.87-4.22,4.73-7.06,5.38-10.34,1.32-22.65-1.13-33.26-4.29-18.58-8.44-37.08-7.93-55.94Z"/>
    <path class="cls-1" d="M644.03,391.95c18.88,20.77,40.48,33.19,65.75,44.94-17.46,17.88-32.22,36.6-44.96,58.12-52.25-24.84-101.97-58.8-101.06-122.71.36-25.23,8.21-49.75,13.82-74.11,6.59-28.59,5.6-57.2,8.95-86.17,16.53-11.67,36.79-18.55,56.53-22.21-2.25,25.09-.08,48.22-5.51,73.12-11.44,4.6-22.45,10.12-33.18,16.19-2.81,11.25-5.69,22.47-8.46,33.73,9.7-5.91,19.28-11.38,29.38-16.59-5.29,23.42-7.56,43.87-2.78,67.5-9.83,6.37-19.19,13.4-28.35,20.69,3.73,12.36,9.94,23.86,18.15,33.82,10.22-9.25,20.54-18.23,31.73-26.31Z"/>
    <path class="cls-1" d="M720.9,339.79c7.66,13.42,57.61,51.08,32.95,67.33-31.43,20.7-74.44,7.14-101.16-14.34,2.47-11.55,6.22-22.81,11.04-33.59,5.27,9.32,17.64,16.92,27.7,12.34,5.11-2.33,4.44-8.35-.3-16.51-5.23-9.02-15-10.57-24.45-11.96-36.85-5.42-29.71-45.61-22.61-73.13,4.93-19.09,10.08-88.13,40.27-86.75,24.42,1.12,34.38,36.68,35.2,55.66-9.73,5.89-19.12,11.95-28.51,18.36,1.29-9.47-1.2-15.29-6.28-14.31-5.35,1.03-9.21,7.31-11.39,16-3.09,12.3,3.58,11.53,9.8,15.03,24.33,13.58,25.8,44.94,37.74,65.85Z"/>
    <path class="cls-1" d="M752.92,195.06c6.93,18.03,10.45,33.27,7.92,52.62-1.9,14.51-6.39,28.71-6.81,43.43-1.27,44.97,31.4,66.35,69.74,80.94-10.61,2.82-20.53,5.98-30.81,9.81-39.74-15.76-74.58-39.23-72.3-86.52.77-16,5.76-31.46,8.68-47.11,3.96-21.24.56-37.1-3.48-58.13,10.86,1.64,16.29,2.67,27.07,4.97Z"/>
    <path class="cls-1" d="M871.41,284.17c-.09,48.48,18.74,74.69,62.73,94.46-5.23-2.01-7.88-2.93-13.25-4.55-10.87-4.03-16-6.19-25.42-11.11,7.94,6.67,9.89,7.22-4.01,5.9-47.2-4.51-131.25-18.34-126.23-78.47,1.95-23.38,12.03-46.99,18.56-70.63,3.21-11.61,6.97-17.5,20.25-13.04,21.56,7.24,41.76,18.51,58.05,35.72-6.54,9.6-15.11,17.83-23.16,26.11-3.16-9.85-8.99-15.9-15.66-16.67-18.02-2.08-23.64,26.46-24.5,38.4-1.38,19.24,14.61,42.23,35.41,44.18,8.88.83,11.22-2.3,10.01-14.47-8.66-1.24-13.03-1.73-21.9-2.35-3.82-14.24-5.06-27.12-3.56-41.85,17.73,2.04,35.18,4.89,52.67,8.37Z"/>
    <path class="cls-1" d="M935.06,230.55c37.69,23.1,37.75,57.33,40.22,97.32,2.68,43.47,15.86,77.23,48.67,106.69-7.72-6.27-15.62-12.4-23.66-18.26-40.2-28.32-68.14-59.29-83.89-106.32,3.5,41.99,21.42,67.49,57.51,88.55-8.95-5.56-18.5-10.71-28.12-15.02-35.43-17.3-58.57-39.65-61.22-80.63-1.95-30.17,4.05-63.9-27.39-81.66,9.72,2.16,14.58,3.16,24.33,4.82,40.88,20.52,50.65,52.98,62.73,94.34-1.66-37.62-1.51-69.17-36.28-90.86,10.83.97,16.25,1.22,27.1,1.03Z"/>
    <path class="cls-1" d="M1062.65,417.55c5.91,26.8,14.58,49.9,29.08,73.24-19.01-15.32-37.55-31.19-56.29-46.83-32.17-31.96-43.95-67.79-46.4-112.46-2.27-41.37-3.3-77.7-41.93-101.49,19.48-1.25,38.81-5.9,57.31-11.94,22.23,12.98,34.52,33.23,42.41,57-11.29.75-22.41,1.19-33.72,1.33,2.57,9.25,4.08,19.27,4.83,28.82,10.07,1.03,20.25,1.7,30.37,2.03,2.01,23.78,2.38,47.63,3.92,71.44-10.18-2.61-20.33-5.5-30.37-8.61,1.58,11.36,3.55,22.02,6.24,33.17,11.41,5.01,22.91,9.82,34.54,14.3Z"/>
    <path class="cls-1" d="M1109.1,416.05c-3.43-.08-5.13-.18-8.51-.49,3.93,34.83,11.27,67.31,26.53,99.03-9.7-3.79-17.94-10.41-26.17-16.59-27.43-47.63-31.96-97.95-34.12-151.78-2.05-51.06-6.76-100.37-52.19-131.62,11.36-4.03,22.57-8.46,33.72-13.03,51.48-19.55,88.13,47.63,94.98,85.38,5.98,32.9,4.77,70.04-7.05,102.98,9.36,45.4,21.49,88.59,44.55,129.1-10.86,1.31-21.4,2.48-32.34,1.05-18.82-32.9-30.69-67.25-39.42-104.03ZM1095.99,324.75c3.85-.35,5.79-.58,9.68-1.12,9.84-4.04,8.22-20.18,6.48-28.37-1.92-9-3.08-22.51-14.51-23.62-3.72.88-5.58,1.3-9.27,2.04,4.48,16.69,6.19,33.91,7.62,51.07Z"/>
    <path class="cls-1" d="M1149.5,195.85c19.74,30.56,23.12,63.81,22.86,99.57-6.86-9.08-13.83-17.81-21.19-26.49-5.16-34.75-16.89-70.11-48.91-89.21,16.23,3.63,32.28,8.81,47.24,16.13Z"/>
    <path class="cls-1" d="M1290.28,364c.03,28.51-1.43,57.88-4.05,86.62-1.37,15-2.29,39.11-18.27,46.11-39.17,17.16-57.61-54.4-61.7-78.65,8.58-13.75,17.32-27.41,26.27-40.93,1.25,8.26,6.11,32.16,16.42,28.09,7.32-2.89,8.92-16.92,9.16-25.57.34-12.28-7.29-18.61-17.33-23.2-34.15-15.61-37.63-72.79-48.02-104.61-7.98-24.43-19.09-47.48-34.75-68.67-3.26-4.41-15.45-16.05-3.04-16.43,40-1.23,79.11,19.76,103.52,50.38-5.28,7.86-8.47,12.56-15.62,22.93-3.96-8.52-11.77-19.25-20-19.01-4.69.14-3.97,8.9-.22,19.9,3.94,11.55,12.7,16.59,23.18,21.6,38.39,22.02,44.41,60.89,44.46,101.42Z"/>
  </g>
  <g>
    <path class="cls-1" d="M766.36,635.51c-3.41.71-5.1,1.05-8.46,1.69,29.88,16.85,59.43,34.38,89.94,50.07-9.42-1.67-18.95-4.1-28.06-6.99-49.84-18.89-98.42-41.43-147.35-62.55-10.28-4.44-22.56-7.79-31.97-13.8-10.88-6.94-9.65-11.9-6.5-24.83,6.52-26.84,24.22-55.85,36.51-80.9,8.2-12.73,16.92-24.59,26.6-36.24,9.42-13.49,14.53-3.06,15.7,7.84,1.1,10.23-.09,21.07-1.71,31.17-2.96,18.43-6.19,44.6-1.28,53.55,7.65,13.97,52.31,35.1,66.09,61.13,42.71,22.73,83.6,48.13,125.04,73.04-10.14,1.25-20.87,1.79-31.07,1.19-34.48-18.22-68.44-37.22-103.47-54.37ZM681.64,594.84c3.75-1.85,5.65-2.78,9.49-4.64,6.22-3.03,2.58-8.76-13.38-18.42s-2.68-21.35-8.56-17.44c-3.63,2.41-5.41,3.62-8.94,6.06.02,7.35-.48,14.66-1.48,21.94,7.63,4.16,15.26,8.32,22.88,12.5Z"/>
    <path class="cls-1" d="M872.49,547.42c30.1,28.28,59.86,61.16,79.29,98.73,4.21,8.13,20.09,37.79,1.19,39.68-24.39,2.43-52.55-16.16-72.73-27.51-41.54-23.36-81.7-49.81-120.09-77.57-10.02-7.25-20.05-14.72-29.81-22.43-11.69-9.24-10.65-12.85-9.67-26.27,1.85-25.32,10.37-45.55,19.38-69.27,8.85-23.33,19.83-60.46,43.64-72.98,19.86-10.45,28.52,29.78,31.09,41.18,4.17,18.52,4.99,37.44,8.94,56,2.55,11.99,3.93,20.62,12.82,29.33,11.22,10.99,24.63,20.49,35.94,31.12ZM837.39,553.64c-14.33-12.54-35.93-21.45-49.56-34.56-5.7-5.48-8.18-16.99-16.44-13.86-6.09,2.31-14.26,17.39-13.42,25.53,1.34,13.12,25.8,29.02,35.46,36.71,17.81,14.17,57.48,49.25,79.45,42.81,17.29-5.07-30.49-52.25-35.49-56.62Z"/>
    <path class="cls-1" d="M936.38,386.18c-1.08,37.51-3,77.23,2.89,114.32,5.54,34.93,40.38,62.36,61.32,90.24,19.63,27.77,41.38,58.5,50.87,91.75,1.81,6.34,4.73,22.34-7.66,14.83-15.39-9.33-31.88-22.81-45.86-35.9-30.5-28.55-58.98-59.3-88.03-89.3-23.49-23.88-64.54-48.64-68.74-82.84-4.5-36.54.7-76.06,3.73-112.75,11.08-1.29,21.46-1.92,32.61-1.96-2.07,34.22-7.14,72.75-2.19,106.75,2.89,19.84,4.73,27.59,18.95,41.71,13.65,13.56,26.95,27.43,40,41.58,13.36,14.58,32.75,42.07,47.89,43.79,8.35.95-19.13-36.85-20.41-38.46-12.44-14.61-25.18-28.92-38.33-42.9-13.56-14.42-15.66-22.79-18.66-42.38-5.25-34.28-1.1-72.79.51-107.34,10.81,2.39,20.66,5.19,31.11,8.83Z"/>
    <path class="cls-1" d="M1094.85,665.99c14.28,29.49,25.81,59.66,35.47,90.96-15.71-12.57-31.05-25.64-47.11-37.76-25.44-53.54-54.11-104.61-90.99-151.2-8.03-10.14-16.32-20.07-24.75-29.88-11.35-13.2-12.7-23.98-15.45-40.93-5.49-33.76-3.09-71.24-2.42-105.41,9.9,4.88,19.23,9.99,28.7,15.66.01,24.86,1.48,49.6,2.49,74.43.75,18.32,1,40.64,8.64,57.55,7.36,16.3,24.24,31.42,34.96,45.99,14.3,19.43,27.09,39.79,39.08,60.72,10.54,6.48,20.96,13.18,31.37,19.87Z"/>
    <path class="cls-1" d="M1167.55,713.71c9.65,26.12,17.03,52.64,21.06,80.23-18.63-8.14-35.19-19.56-51.42-31.65-15.91-55.18-38.48-107.23-71.27-154.56-16.79-24.23-31.84-40.93-38.18-70.25-7.03-32.5-7.98-68.06-9.28-101.24,19.21,15.54,37.84,31.73,56.62,47.78,3.56,30.38,8.98,60.82,16.26,90.54-11.64-6.87-23.11-14.04-34.51-21.3,2.9,11.13,3.69,28.99,13.17,36.83,10.24,5.95,20.56,11.76,31.03,17.31,16.46,21.58,31.45,43.42,44.52,67.23-9.97-5.05-19.71-10.28-29.45-15.76,6.47,12.25,12.64,24.57,18.05,37.33,10.84,6.37,21.96,12.3,33.41,17.51Z"/>
    <path class="cls-1" d="M1180.26,615.29c-9.76-.34-14.57-.94-23.94-3.23,14.87,34.31,44.08,60.72,60.11,95.16,14.57,31.32,22.22,64.36,24.55,98.73-11.11-.45-16.66-1.2-27.49-3.73-4.12-35.66-12.97-70.16-28.31-102.71-16.59-35.22-47.42-63.69-60.46-99.83-9.1-4.36-13.65-6.71-22.56-11.58-10.07-31.65-15.96-65.34-20.2-98.26,21.11,17.49,39.49,33.88,66.56,40.6,7.97,29.12,18.67,57.64,31.75,84.85Z"/>
    <path class="cls-1" d="M1269.19,595.47c-9.98,4.17-15.04,6.1-25.14,9.39,18.17,31.13,42.99,56.64,55.88,90.96,11.67,31.07,14.76,63.49,11.14,96.36-10.17,4.6-15.49,6.45-26.31,9.17,1.05-33.24-4.08-65.61-17.05-96.34-14.45-34.21-41.07-59.43-58.28-91.64-9.97,1.57-14.94,2.02-24.69,2.01-13.22-27.05-24.15-55.36-32.3-84.34,27.33,1.83,51.07-4.12,76.78-13,10.57,27.26,24.68,52.56,39.97,77.43Z"/>
    <path class="cls-1" d="M1394.02,661.4c-.68,25.33-5.64,47.1-16.08,70.19-11.54,18.51-24.5,32.97-41.76,46.22,9.5-47.25,2.73-94.26-21.86-136.02-25.37-43.09-56.22-80.5-75.15-127.55,22.26-9.01,44.06-19.12,66.41-27.9,10.59,22.54,24.29,42.18,39.01,62.18-11.87,6.65-23.78,13.2-35.78,19.6,6.02,8.97,11.98,17.93,18.22,26.75,10.56-6,20.94-12.31,31.21-18.81,11.91,18.28,21.14,36.11,27.32,57.05-8.91,7.22-17.84,13.99-27.2,20.63,3.13,11.23,5.31,21.62,6.95,33.16,10.2-7.76,19.77-16.31,28.7-25.5Z"/>
  </g>
</svg>